<?xml version="1.0" ?><svg style="enable-background:new 0 0 100 100;" version="1.1" viewBox="0 0 100 100" xml:space="preserve" xmlns="http://www.w3.org/2000/svg" xmlns:xlink="http://www.w3.org/1999/xlink"><style type="text/css">
	.st0{fill:#FFFFFF;}
	.st1{fill:none;stroke:#000000;stroke-width:3;stroke-linecap:round;stroke-linejoin:round;stroke-miterlimit:10;}
	.st2{fill-rule:evenodd;clip-rule:evenodd;}
	
		.st3{fill-rule:evenodd;clip-rule:evenodd;fill:none;stroke:#040404;stroke-width:3;stroke-linecap:round;stroke-linejoin:round;stroke-miterlimit:10;}
	
		.st4{fill-rule:evenodd;clip-rule:evenodd;fill:none;stroke:#000000;stroke-width:3;stroke-linecap:round;stroke-linejoin:round;stroke-miterlimit:10;}
	.st5{fill-rule:evenodd;clip-rule:evenodd;fill:#040404;}
	.st6{fill:none;}
	.st7{fill:none;stroke:#000000;stroke-width:3;stroke-miterlimit:10;}
	.st8{fill:none;stroke:#FFFFFF;stroke-miterlimit:10;}
	.st9{fill:#040404;}
</style><g id="Layer_1"/><g id="Layer_2"><path d="M97.498,67.342c0.006-6.149-0.004-37.025,0-42.489c0.113-8.79-10.334-14.029-17.309-8.654   c-3.602,2.721-26.049,19.523-30.189,22.643c-4.246-3.185-26.424-19.819-30.19-22.643c-6.954-5.366-17.431-0.148-17.308,8.655   c0,0,0,8.384,0,8.384c0.015,0.429,0.206,0.848,0.554,1.109L23.461,49.65v33.553H10.175c-2.703,0-4.902-2.199-4.902-4.902V40.011   c-0.008-1.805-2.752-1.83-2.772,0c0,0,0,38.291,0,38.291c0,4.232,3.442,7.674,7.674,7.674h14.672c0.765,0,1.386-0.621,1.386-1.386   v-32.86l22.935,17.201c0.493,0.369,1.171,0.369,1.664,0l22.935-17.201v32.86c0,0.765,0.621,1.386,1.386,1.386h14.672   c4.232,0,7.674-3.442,7.674-7.674v-5.08c-0.053-1.84-2.732-1.812-2.772,0c0,0,0,5.08,0,5.08c0,2.703-2.199,4.902-4.902,4.902   H76.538V49.65l18.188-13.641v31.333C94.736,69.151,97.478,69.167,97.498,67.342z M23.461,46.185L5.273,32.543v-7.691   c0-3.114,1.663-5.804,4.447-7.197c2.784-1.394,5.934-1.111,8.426,0.76l5.314,3.985V46.185z M73.766,48.264L49.999,66.089   L26.233,48.264V24.48l22.935,17.202c0.493,0.37,1.171,0.37,1.664,0L73.766,24.48V48.264z M76.538,46.185V22.401l5.314-3.985   c5.067-4.044,13.071-0.043,12.874,6.437c0,0,0,7.69,0,7.69L76.538,46.185z"/></g></svg>